<svg width="35" height="72" viewBox="0 0 35 72" fill="none" xmlns="http://www.w3.org/2000/svg">
<rect x="0.582352" y="31.6567" width="8.57668" height="5.57118" transform="rotate(6 0.582352 31.6567)" fill="#FC9E1C" fill-opacity="0.65"/>
<rect x="16.4821" y="43.5437" width="10.1039" height="5.87661" transform="rotate(-71 16.4821 43.5437)" fill="#F62584" fill-opacity="0.6"/>
<circle cx="31.9624" cy="67" r="3" fill="#F54721" fill-opacity="0.45"/>
<path d="M9.7483 21.9185L9.91179 25.0381L6.99543 26.1576L5.02952 23.7299L6.73089 21.11L9.7483 21.9185Z" fill="#755FFE" fill-opacity="0.9"/>
<path d="M7.67257 70.0563L5.6499 68.9492L3.49283 69.764L4.59993 67.7413L3.78511 65.5843L5.80778 66.6914L7.96485 65.8765L6.85775 67.8992L7.67257 70.0563Z" fill="#755FFE" fill-opacity="0.75"/>
<path d="M22.628 3.09795L21.0115 5.40657L22.7076 7.65736L20.0124 6.83337L18.3959 9.14198L18.3467 6.32411L15.6516 5.50012L18.3163 4.58257L18.2672 1.76471L19.9633 4.0155L22.628 3.09795Z" fill="#FC9E1C" fill-opacity="0.65"/>
</svg>
