<svg width="169" height="154" viewBox="0 0 169 154" fill="none" xmlns="http://www.w3.org/2000/svg">
<g clip-path="url(#clip0_81_70)">
<path d="M185.9 -31.9H-16.9V170.9H185.9V-31.9Z" fill="white"/>
<path d="M185.9 -31.9H-16.9V170.9H185.9V-31.9Z" fill="white"/>
<path d="M185.9 -31.9H-16.9V170.9H185.9V-31.9Z" fill="white"/>
<mask id="mask0_81_70" style="mask-type:luminance" maskUnits="userSpaceOnUse" x="9" y="50" width="78" height="48">
<path d="M9.47278 50.153H86.0773V97.8181H9.47278V50.153Z" fill="white"/>
</mask>
<g mask="url(#mask0_81_70)">
<path d="M31.8653 50.315C31.6294 50.3167 31.39 50.3484 31.1488 50.4136C30.1894 50.6759 29.4905 51.461 29.3162 52.3324L9.84248 138.887C8.70701 144.117 9.92874 149.433 13.2471 153.618C13.5974 154.055 14.034 154.489 14.3826 154.926H-11.2033C-13.4742 154.926 -15.3068 153.095 -15.3068 150.829C-15.3068 149.61 -14.7822 148.388 -13.7348 147.603C-12.6873 146.819 -11.4638 146.557 -10.2421 146.819L0.147863 149.259C1.54563 149.608 2.94516 148.738 3.29373 147.342C3.64229 145.948 2.76912 144.552 1.37135 144.203L-9.02039 141.763C-11.8159 141.154 -14.696 141.763 -16.9669 143.594C-19.2378 145.337 -20.4596 148.039 -20.4596 150.916C-20.5476 155.972 -16.356 160.156 -11.2033 160.156H28.355C29.8408 160.156 30.9745 159.022 30.9745 157.54C30.9745 156.06 29.8408 154.926 28.355 154.926H26.783C23.028 154.926 19.5371 153.269 17.2662 150.305C14.9072 147.428 14.034 143.682 14.9072 140.021L33.3317 58.0855L33.7683 58.5203C37.437 62.2682 42.3274 64.2733 47.5664 64.2733C52.8072 64.2733 57.6976 62.2682 61.3646 58.6083L61.8029 58.1717L80.2275 140.107C81.0126 143.768 80.1394 147.516 77.8685 150.393C75.5113 153.269 72.0186 155.012 68.3517 155.012H67.6528C66.167 155.012 65.0333 156.146 65.0333 157.628C65.0333 159.109 66.167 160.242 67.6528 160.242H68.3517C73.6787 160.242 78.6554 157.889 81.9738 153.704C85.2922 149.522 86.5157 144.203 85.3802 138.973L65.8185 52.3324C65.6442 51.373 64.9453 50.6759 63.9859 50.4136C63.1127 50.1513 62.0635 50.4136 61.3646 51.1107L57.6096 54.8586C54.9901 57.5609 51.4094 59.0431 47.5664 59.0431C43.7252 59.0431 40.1445 57.5609 37.525 54.8586L33.7683 51.1107C33.2455 50.5878 32.573 50.3115 31.8653 50.315ZM38.8348 76.4765C38.6623 76.4765 38.4915 76.4924 38.3243 76.5258C38.1553 76.561 37.9915 76.6103 37.8313 76.6755C37.6729 76.7406 37.5215 76.8216 37.3789 76.9166C37.2363 77.0117 37.1043 77.1208 36.9828 77.2423C36.8614 77.3638 36.7522 77.4958 36.6571 77.6384C36.5603 77.781 36.4793 77.9324 36.4142 78.0908C36.3491 78.2493 36.298 78.413 36.2646 78.582C36.2311 78.7492 36.2153 78.92 36.2153 79.0908C36.2153 79.2633 36.2311 79.4323 36.2646 79.6013C36.298 79.7703 36.3491 79.934 36.4142 80.0924C36.4793 80.2509 36.5603 80.4023 36.6571 80.5449C36.7522 80.6875 36.8614 80.8195 36.9828 80.941C37.1043 81.0624 37.2363 81.1698 37.3789 81.2649C37.5215 81.3617 37.6729 81.4409 37.8313 81.5078C37.9915 81.5729 38.1553 81.6222 38.3243 81.6557C38.4915 81.6891 38.6623 81.7067 38.8348 81.7067C39.0073 81.7067 39.1763 81.6891 39.3453 81.6557C39.5143 81.6222 39.678 81.5729 39.8365 81.5078C39.9967 81.4409 40.1463 81.3617 40.2906 81.2649C40.4332 81.1698 40.5653 81.0624 40.6867 80.941C40.8082 80.8195 40.9174 80.6875 41.0124 80.5449C41.1092 80.4023 41.1885 80.2509 41.2554 80.0924C41.3205 79.934 41.3698 79.7703 41.4032 79.6013C41.4384 79.4323 41.4543 79.2633 41.4543 79.0908C41.4543 78.92 41.4384 78.7492 41.4032 78.582C41.3698 78.413 41.3205 78.2493 41.2554 78.0908C41.1885 77.9324 41.1092 77.781 41.0124 77.6384C40.9174 77.4958 40.8082 77.3638 40.6867 77.2423C40.5653 77.1208 40.4332 77.0117 40.2906 76.9166C40.1463 76.8216 39.9967 76.7406 39.8365 76.6755C39.678 76.6103 39.5143 76.561 39.3453 76.5258C39.1763 76.4924 39.0073 76.4765 38.8348 76.4765ZM56.2999 76.4765C56.1274 76.4765 55.9566 76.4924 55.7894 76.5258C55.6204 76.561 55.4566 76.6103 55.2964 76.6755C55.138 76.7406 54.9866 76.8216 54.844 76.9166C54.7014 77.0117 54.5694 77.1208 54.4479 77.2423C54.3264 77.3638 54.2173 77.4958 54.1222 77.6384C54.0254 77.781 53.9444 77.9324 53.8793 78.0908C53.8142 78.2493 53.7631 78.413 53.7297 78.582C53.6962 78.7492 53.6804 78.92 53.6804 79.0908C53.6804 79.2633 53.6962 79.4323 53.7297 79.6013C53.7631 79.7703 53.8142 79.934 53.8793 80.0924C53.9444 80.2509 54.0254 80.4023 54.1222 80.5449C54.2173 80.6875 54.3264 80.8195 54.4479 80.941C54.5694 81.0624 54.7014 81.1698 54.844 81.2649C54.9866 81.3617 55.138 81.4409 55.2964 81.5078C55.4566 81.5729 55.6204 81.6222 55.7894 81.6557C55.9566 81.6891 56.1274 81.7067 56.2999 81.7067C56.4724 81.7067 56.6414 81.6891 56.8104 81.6557C56.9794 81.6222 57.1431 81.5729 57.3016 81.5078C57.4618 81.4409 57.6131 81.3617 57.7557 81.2649C57.8983 81.1698 58.0304 81.0624 58.1518 80.941C58.2733 80.8195 58.3825 80.6875 58.4775 80.5449C58.5743 80.4023 58.6536 80.2509 58.7205 80.0924C58.7856 79.934 58.8349 79.7703 58.8701 79.6013C58.9035 79.4323 58.9194 79.2633 58.9194 79.0908C58.9194 78.92 58.9035 78.7492 58.8701 78.582C58.8349 78.413 58.7856 78.2493 58.7205 78.0908C58.6536 77.9324 58.5743 77.781 58.4775 77.6384C58.3825 77.4958 58.2733 77.3638 58.1518 77.2423C58.0304 77.1208 57.8983 77.0117 57.7557 76.9166C57.6131 76.8216 57.4618 76.7406 57.3016 76.6755C57.1431 76.6103 56.9794 76.561 56.8104 76.5258C56.6414 76.4924 56.4724 76.4765 56.2999 76.4765ZM28.3533 111.359C28.1807 111.364 28.0065 111.386 27.8322 111.43C26.4344 111.692 25.4732 113.086 25.7355 114.48L33.5958 153.792C34.2929 157.452 37.6131 160.156 41.368 160.156H42.2412C44.2498 160.156 46.0824 159.371 47.4802 158.149C48.878 159.371 50.7106 160.156 52.7192 160.156C56.4742 160.156 59.7063 157.452 60.4914 153.792L68.3517 114.48C68.614 113.086 67.7391 111.692 66.255 111.43C64.859 111.167 63.4613 112.04 63.199 113.523L55.3404 152.833C55.0781 154.053 54.0289 154.926 52.7192 154.926C51.2352 154.926 50.0997 153.706 50.0997 152.31V122.675C50.0997 121.193 48.9642 120.059 47.4802 120.059C45.9962 120.059 44.8607 121.193 44.8607 122.675V152.31C44.8607 153.792 43.6372 154.926 42.2412 154.926H41.368C40.1445 154.926 39.0091 154.053 38.7485 152.833L30.8883 113.523C30.6594 112.225 29.5609 111.329 28.3533 111.359Z" fill="black"/>
</g>
<path d="M38.4264 75.1017C36.2892 75.1017 34.5517 76.8392 34.5517 78.9763C34.5517 81.1135 36.2892 82.851 38.4264 82.851C40.5635 82.851 42.3011 81.1135 42.3011 78.9763C42.3011 76.8392 40.5635 75.1017 38.4264 75.1017Z" fill="#F8C961"/>
<path d="M56.8861 75.1017C54.7489 75.1017 53.0096 76.8392 53.0096 78.9763C53.0096 81.1135 54.7489 82.851 56.8861 82.851C59.0215 82.851 60.7608 81.1135 60.7608 78.9763C60.7608 76.8392 59.0215 75.1017 56.8861 75.1017Z" fill="white"/>
<path d="M95.3396 52.4648L92.1549 53.0263C91.6833 53.1095 91.3019 53.3591 91.0106 53.7751C90.7192 54.1911 90.603 54.5763 90.6862 55.0478L95.8231 84.1805C96.1141 85.8309 95.764 87.2923 94.8901 88.5404C93.9676 89.8578 92.7037 90.6277 91.1122 90.9083C90.2869 91.0538 89.4409 91.0814 88.6695 90.8528C87.8512 90.6932 87.1301 90.3949 86.4956 89.899C85.8126 89.4724 85.2857 88.8968 84.8556 88.1808C84.3754 87.5361 84.112 86.7316 83.9665 85.9064L78.892 57.1275C78.8089 56.6559 78.5697 56.3334 78.1536 56.0421C77.7376 55.7508 77.2938 55.6467 76.8223 55.7299L73.6375 56.2914C73.1659 56.3746 72.7845 56.6242 72.4932 57.0402C72.2019 57.4562 72.1464 57.8307 72.2295 58.3022L77.3352 87.258C77.647 89.0264 78.2227 90.5676 79.2002 91.9755C80.1189 93.3937 81.232 94.5363 82.6101 95.4481C83.9379 96.4295 85.3909 97.0868 87.0396 97.4646C88.6968 97.9017 90.3421 97.9155 92.1104 97.6037C93.8198 97.3023 95.42 96.7163 96.8383 95.7976C98.2582 94.8787 99.3988 93.7641 100.37 92.3774C101.294 91.0596 101.939 89.5463 102.317 87.8994C102.695 86.2525 102.768 84.5969 102.456 82.8285L97.3504 53.8727C97.2673 53.4012 97.0281 53.0787 96.612 52.7874C96.196 52.4961 95.8112 52.3816 95.3396 52.4648Z" fill="black"/>
<path d="M122.378 89.3938L127.951 57.7855C128.034 57.314 127.92 56.9291 127.629 56.5131C127.336 56.0967 127.013 55.8575 126.541 55.7744L123.357 55.2128C122.826 55.1193 122.382 55.2234 121.966 55.5147C121.55 55.806 121.37 56.1389 121.287 56.6104L115.724 88.1598C115.568 89.0457 115.148 89.7011 114.583 90.1484C114.018 90.5958 113.366 90.8455 112.685 90.9077C112.005 90.9702 111.357 90.8559 110.691 90.4954C110.026 90.1349 109.568 89.6287 109.327 88.9177C108.959 88.2451 108.422 87.8464 107.693 87.8396L104.276 87.9056C103.666 87.9196 103.212 88.0826 102.893 88.5126C102.574 88.9426 102.422 89.4627 102.574 89.9758C102.931 91.7423 103.656 93.1465 104.671 94.2978C105.683 95.4505 106.935 96.279 108.289 96.8824C109.641 97.4855 111.056 97.735 112.583 97.7004C114.039 97.7141 115.499 97.3637 116.825 96.7466C118.15 96.1275 119.339 95.2432 120.344 94.0226C121.352 92.8005 122.045 91.2818 122.378 89.3938Z" fill="black"/>
<path d="M133.568 56H130.274C129.795 56 129.376 56.1716 129.017 56.5147C128.658 56.8578 128.538 57.2009 128.538 57.6584V96.2787C128.538 96.7362 128.658 97.1365 129.017 97.4796C129.376 97.8227 129.795 97.9371 130.274 97.9371H133.568C134.047 97.9371 134.406 97.8227 134.765 97.4796C135.124 97.1365 135.303 96.7362 135.303 96.2787V57.6584C135.303 57.2009 135.124 56.8578 134.765 56.5147C134.406 56.1716 134.047 56 133.568 56Z" fill="black"/>
</g>
<defs>
<clipPath id="clip0_81_70">
<rect width="169" height="169" fill="white" transform="translate(0 -15)"/>
</clipPath>
</defs>
</svg>
